<mxfile host="app.diagrams.net" modified="2023-08-14T08:11:31.941Z" agent="Mozilla/5.0 (Windows NT 10.0; Win64; x64) AppleWebKit/537.36 (KHTML, like Gecko) Chrome/115.0.0.0 Safari/537.36" version="21.6.8" etag="rugnplVOcEQw2eWW7jSg" type="github">
  <diagram name="Page-1" id="NdpvHd-Gx5xPBLNsHubl">
    <mxGraphModel>
      <root>
        <mxCell id="0" />
        <mxCell id="1" parent="0" />
      </root>
    </mxGraphModel>
  </diagram>
</mxfile>
